<?xml version="1.0" encoding="utf-8"?>
<!-- Generator: Adobe Illustrator 22.0.1, SVG Export Plug-In . SVG Version: 6.00 Build 0)  -->
<svg version="1.1" id="Layer_1" xmlns="http://www.w3.org/2000/svg" xmlns:xlink="http://www.w3.org/1999/xlink" x="0px" y="0px"
	 viewBox="0 0 83 19.9" style="enable-background:new 0 0 83 19.9;" xml:space="preserve">
<style type="text/css">
	.st0{fill:#FFFFFF;}
</style>
<title>appleMusicLogo</title>
<path class="st0" d="M34.7,19.7V6.2h-0.1l-5.4,13.5h-2.1L21.7,6.2h-0.1v13.5h-2.5V1.4h3.2L28.1,16h0.1L34,1.4h3.3v18.3H34.7z
	 M51.4,19.7h-2.6v-2.3h-0.1C48,19,46.3,20,44.6,19.9c-2.9,0-4.6-1.9-4.6-5V6.3h2.7v8.1c0,2,1,3.1,2.8,3.1c2,0,3.1-1.4,3.1-3.5V6.3
	h2.7C51.3,6.3,51.4,19.7,51.4,19.7z M58.8,6.1c3.1,0,5,1.7,5.1,4.2h-2.5c-0.1-1.3-1.3-2.2-2.6-2.1c-1.5,0-2.5,0.7-2.5,1.8
	c0,0.8,0.6,1.4,2,1.7l2.1,0.5c2.7,0.6,3.7,1.7,3.7,3.6c0,2.4-2.2,4.1-5.3,4.1c-3.3,0-5.3-1.6-5.5-4.2H56c0.2,1.4,1.2,2.1,2.8,2.1
	s2.6-0.7,2.6-1.8c0-0.9-0.5-1.4-1.9-1.7l-2.1-0.5c-2.5-0.6-3.7-1.8-3.7-3.8C53.7,7.7,55.7,6.1,58.8,6.1z M66.1,2.8
	c0-0.9,0.7-1.6,1.6-1.6c0.9,0,1.6,0.7,1.6,1.6c0,0,0,0,0,0c0,0.9-0.7,1.6-1.6,1.6C66.8,4.4,66.1,3.7,66.1,2.8
	C66.1,2.8,66.1,2.8,66.1,2.8z M66.3,6.3H69v13.4h-2.7V6.3z M80.4,10.9c-0.2-1.5-1.6-2.6-3.1-2.6c-2.1,0-3.5,1.8-3.5,4.6
	s1.4,4.6,3.5,4.6c1.5,0.1,2.8-1,3.1-2.5H83c-0.3,2.9-2.8,5-5.7,4.8c-3.8,0-6.2-2.6-6.2-6.9S73.5,6,77.3,6c2.9-0.2,5.4,1.9,5.7,4.8
	C83,10.8,80.4,10.9,80.4,10.9z M10.8,3.2C10.1,4.1,9,4.6,7.9,4.6c-0.1-1.1,0.2-2.3,1-3.1c0.7-0.9,1.8-1.4,2.9-1.5
	C11.8,1.2,11.5,2.3,10.8,3.2z M11.8,4.8c1.5,0,2.8,0.8,3.6,2c-1.3,0.8-2.1,2.3-2.1,3.8c0,1.7,1,3.3,2.6,4c-0.3,1-0.7,1.9-1.3,2.8
	c-0.8,1.2-1.7,2.4-3,2.4c-1.3,0-1.7-0.8-3.2-0.8s-2,0.8-3.2,0.8s-2.3-1.3-3.1-2.5c-1.7-2.5-3-7-1.2-10c0.8-1.5,2.3-2.4,4-2.5
	c1.3,0,2.5,0.9,3.2,0.9C8.8,5.7,10.2,4.7,11.8,4.8z"/>
</svg>
