<?xml version="1.0" encoding="utf-8"?>
<!-- Generator: Adobe Illustrator 22.0.1, SVG Export Plug-In . SVG Version: 6.00 Build 0)  -->
<svg version="1.1"
	 id="svg2" xmlns:cc="http://creativecommons.org/ns#" xmlns:dc="http://purl.org/dc/elements/1.1/" xmlns:rdf="http://www.w3.org/1999/02/22-rdf-syntax-ns#" xmlns:svg="http://www.w3.org/2000/svg"
	 xmlns="http://www.w3.org/2000/svg" xmlns:xlink="http://www.w3.org/1999/xlink" x="0px" y="0px" viewBox="0 0 1974.5 310.1"
	 style="enable-background:new 0 0 1974.5 310.1;" xml:space="preserve">
<style type="text/css">
	.st0{fill:#F2F2F2;}
	.st1{fill:url(#path26_1_);}
</style>
<g id="g10" transform="matrix(1.3333333,0,0,-1.3333333,0,310.14667)">
	<g id="g12" transform="scale(0.1)">
		<path id="path14" class="st0" d="M3748.3,1624.5c-238.4,0-360.3-187.7-360.3-470.4c0-267.3,131.7-467.8,360.3-467.8
			c258.4,0,355.3,236.5,355.3,467.8C4103.5,1395.6,3981.7,1624.5,3748.3,1624.5 M3114.7,2326.1H3398v-678.5h5
			c77,128.5,238.5,208.2,382.6,208.2c404.9,0,601.3-318.8,601.3-707c0-357.2-173.9-693.9-554.1-693.9
			c-173.9,0-360.3,43.6-444.8,218.4h-4.9V490.8h-268.4L3114.7,2326.1L3114.7,2326.1"/>
		<path id="path16" class="st0" d="M5368.9,938.1c0-185-193.8-251.9-318-251.9c-99.4,0-261,38.7-261,169.7
			c0,154.3,109.4,200.6,231.2,221.2c124.2,23.1,260.9,20.5,347.9,79.6L5368.9,938.1z M6581.1,1855.8c-169,0-315.6-89.9-400.1-236.6
			l-5,5.2v195.3h-268.4V688c-161.5-1.8-176.6-1.8-188.9-1.8c-52.2,0-67.1,28.3-67.1,100.3v683.8c0,280.1-263.4,385.6-514.4,385.6
			c-283.3,0-564-100.2-583.8-442.2h283.2c12.5,144,124.2,210.8,283.3,210.8c114.3,0,265.9-28.4,265.9-180
			c0-172.2-181.4-149.1-385.1-187.7c-238.5-28.2-494.4-82.3-494.4-413.7c0-259.7,208.7-388.1,439.7-388.1
			c151.6,0,333,48.8,444.8,161.7c22.3-120.7,104.4-161.7,218.6-161.7c47.2,0,136.6,17.9,579.8,33.4v2.6h1.8v783.9
			c0,195.4,121.8,349.7,310.6,349.7c166.5,0,246-90,251-298.2V490.9h283.4v912.5c0.5,298.1-176,452.4-454.3,452.4"/>
		<path id="path18" class="st0" d="M7860.9,686.1c253.4,0,360.3,239.1,360.3,470.5c0,292.9-136.6,467.8-355.4,467.8
			c-265.9,0-360.3-244.2-360.3-483.2C7505.5,912.4,7614.8,686.2,7860.9,686.1 M8494.5,490.9h-268.4v179.9h-4.9
			c-74.5-151.7-236.1-215.9-397.6-215.9c-404.9,0-601.3,311-601.3,709.4c0,480.7,275.8,691.4,556.6,691.4
			c161.4,0,340.3-61.7,427.3-208.2h5v678.5h283.2L8494.5,490.9L8494.5,490.9"/>
		<path id="path20" class="st0" d="M9620.1,1375c-22.4,161.9-136.7,249.4-293.2,249.4c-146.7,0-352.9-79.7-352.9-483.3
			c0-221.1,94.4-455,340.4-455c164,0,278.2,113.2,305.6,303.5h283.2c-52.2-344.4-258.4-534.7-588.8-534.7
			c-402.5,0-623.7,295.5-623.7,686.2c0,401,211.2,714.6,633.6,714.6c298.2,0,551.7-154.2,578.9-480.7h-282.8L9620.1,1375"/>
		<path id="path22" class="st0" d="M10877.6,938.1c0-185-193.8-251.9-318.1-251.9c-99.3,0-260.8,38.7-260.8,169.7
			c0,154.3,109.4,200.6,231,221.2c124.3,23.1,261,20.5,347.9,79.6L10877.6,938.1z M12850.6,1855.8c-186.4,0-308.1-84.9-402.5-221.1
			c-57.2,151.6-203.8,221.1-360.4,221.1c-203.7,0-310.6-89.9-395-221.1h-7.5v185h-268.5V688c-161.5-1.8-176.5-1.8-189-1.8
			c-52.1,0-67,28.3-67,100.3v683.8c0,280.1-263.3,385.6-514.4,385.6c-283.2,0-564-100.2-583.9-442.2h283.3
			c12.4,144,124.3,210.8,283.3,210.8c114.3,0,265.8-28.4,265.8-180c0-172.2-181.4-149.1-385.1-187.7
			c-238.6-28.2-494.5-82.3-494.5-413.7c0-259.7,208.7-388.1,439.8-388.1c151.6,0,332.9,48.8,444.8,161.7
			c22.3-120.7,104.3-161.7,218.7-161.7c47.1,0,136.6,17.9,575.7,33.4v2.6h5.8v789c0,221,134.2,344.5,280.8,344.5
			c171.4,0,226.1-97.6,226.1-280.3V490.9h283.2v778.8c0,223.7,82,354.7,273.4,354.7c221.1,0,233.5-146.5,233.5-357.4V490.9h283.3
			v917.6c0.1,323.9-158.8,447.3-429.5,447.3"/>
		<path id="path24" class="st0" d="M14170,1624.5c-238.5,0-360.3-187.7-360.3-470.4c0-267.3,131.7-467.8,360.3-467.8
			c258.4,0,355.4,236.5,355.4,467.8C14525.4,1395.6,14403.4,1624.5,14170,1624.5 M13536.4,1819.8h268.4v-179.9h5
			c79.5,151.6,233.5,215.9,397.5,215.9c405,0,601.3-318.8,601.3-707c0-357.2-173.9-693.9-554-693.9c-164,0-340.5,61.7-429.9,208.1
			h-5V0h-283.3v1819.6V1819.8"/>
		<linearGradient id="path26_1_" gradientUnits="userSpaceOnUse" x1="0" y1="1410.4403" x2="415.544" y2="1410.4403">
			<stop  offset="0" style="stop-color:#2BC4F3"/>
			<stop  offset="0.5" style="stop-color:#00AEEE"/>
			<stop  offset="1" style="stop-color:#0095DA"/>
		</linearGradient>
		<path id="path26" class="st1" d="M2124.5,494.8H0l992.1,1831.3h2124.5L2124.5,494.8"/>
	</g>
</g>
</svg>
