<svg width="141" height="33" viewBox="0 0 141 33" xmlns="http://www.w3.org/2000/svg" xmlns:xlink="http://www.w3.org/1999/xlink"><defs><path d="M.025 5.089l5.043 5.063c3.839-2.116 6.774-3.728 7.025-3.854.803-.429 1.63-1.562 0-2.444C11.566 3.577 8.73 2.016 5.068 0L.025 5.089z" id="a"/><linearGradient x1="63.798%" y1="83.6%" x2="32.318%" y2="4.127%" id="b"><stop stop-color="#FBCF8E" offset="0%"/><stop stop-color="#F69572" offset="100%"/></linearGradient><path d="M.226 16.349c.376.05.803-.05 1.304-.328 1.054-.579 12.244-6.726 19.846-10.907L16.333.05.226 16.35z" id="d"/><linearGradient x1="87.253%" y1="13.472%" x2="13.55%" y2="116.375%" id="e"><stop stop-color="#E63F46" offset="0%"/><stop stop-color="#7E50A0" offset="100%"/></linearGradient><path d="M.2.227l16.133 16.197 5.043-5.088S2.659 1.083 1.53.479A1.987 1.987 0 0 0 .522.199 1.9 1.9 0 0 0 .2.227" id="g"/><linearGradient x1="87.65%" y1="85.492%" x2="12.818%" y2="-16.047%" id="h"><stop stop-color="#E6FFAA" offset="0%"/><stop stop-color="#46BDBC" offset="100%"/></linearGradient><path d="M0 2.141v28.667c0 1.084.427 1.865 1.23 1.94l16.106-16.324L1.204.227C.552.377 0 .957 0 2.14" id="j"/><linearGradient x1="50%" y1="100%" x2="50%" y2=".103%" id="k"><stop stop-color="#83E8DB" offset="0%"/><stop stop-color="#187490" offset="100%"/></linearGradient></defs><g fill="none" fill-rule="evenodd"><g transform="translate(17.311 11.389)"><mask id="c" fill="#fff"><use xlink:href="#a"/></mask><path d="M.025 5.089l5.043 5.063c3.839-2.116 6.774-3.728 7.025-3.854.803-.429 1.63-1.562 0-2.444C11.566 3.577 8.73 2.016 5.068 0L.025 5.089z" fill="url(#b)" mask="url(#c)"/></g><g transform="translate(1.004 16.427)"><mask id="f" fill="#fff"><use xlink:href="#d"/></mask><path d="M.226 16.349c.376.05.803-.05 1.304-.328 1.054-.579 12.244-6.726 19.846-10.907L16.333.05.226 16.35z" fill="url(#e)" mask="url(#f)"/></g><g transform="translate(1.004 .053)"><mask id="i" fill="#fff"><use xlink:href="#g"/></mask><path d="M.2.227l16.133 16.197 5.043-5.088S2.659 1.083 1.53.479A1.987 1.987 0 0 0 .522.199 1.9 1.9 0 0 0 .2.227" fill="url(#h)" mask="url(#i)"/></g><g transform="translate(0 .053)"><mask id="l" fill="#fff"><use xlink:href="#j"/></mask><path d="M0 2.141v28.667c0 1.084.427 1.865 1.23 1.94l16.106-16.324L1.204.227C.552.377 0 .957 0 2.14" fill="url(#k)" mask="url(#l)"/></g><path d="M117.667 23.556h2.308V7.963h-2.308v15.593zm20.724-9.975l-2.635 6.75h-.075l-2.735-6.75h-2.483l4.114 9.446-2.333 5.265h2.408l6.323-14.711h-2.584zm-13.047 8.187c-.752 0-1.806-.378-1.806-1.31 0-1.21 1.305-1.663 2.434-1.663 1.003 0 1.48.227 2.107.53a2.781 2.781 0 0 1-2.735 2.443zm.276-8.54c-1.655 0-3.387.73-4.089 2.393l2.032.857c.452-.857 1.255-1.134 2.108-1.134 1.204 0 2.408.73 2.433 2.015v.151c-.426-.252-1.304-.604-2.408-.604-2.208 0-4.441 1.234-4.441 3.501 0 2.091 1.806 3.426 3.814 3.426 1.555 0 2.408-.705 2.935-1.536h.075v1.209h2.233v-5.97c-.025-2.746-2.057-4.308-4.692-4.308zm-14.225 2.242h-3.287v-5.34h3.287c1.706 0 2.71 1.435 2.71 2.67-.025 1.209-1.004 2.67-2.71 2.67zm-.075-7.507h-5.52v15.593h2.308v-5.92h3.212c2.559 0 5.068-1.864 5.068-4.836 0-2.973-2.51-4.837-5.068-4.837zm-30.057 13.83c-1.58 0-2.91-1.335-2.91-3.2 0-1.864 1.33-3.224 2.91-3.224 1.556 0 2.81 1.36 2.81 3.225 0 1.839-1.254 3.199-2.81 3.199zm2.635-7.356h-.076c-.527-.63-1.505-1.184-2.76-1.184-2.634 0-5.017 2.343-5.017 5.315 0 2.973 2.408 5.29 5.017 5.29 1.255 0 2.233-.554 2.76-1.209h.076v.756c0 2.04-1.08 3.124-2.81 3.124-1.405 0-2.284-1.033-2.635-1.89l-2.007.857c.577 1.41 2.108 3.149 4.642 3.149 2.71 0 4.992-1.612 4.992-5.517v-9.547h-2.182v.856zm3.788 9.12h2.308V7.962h-2.308v15.593zm5.695-5.14c-.05-2.04 1.58-3.098 2.735-3.098.928 0 1.68.453 1.957 1.133l-4.692 1.965zm7.15-1.788c-.426-1.184-1.78-3.376-4.49-3.376s-4.943 2.141-4.943 5.315c0 2.973 2.233 5.316 5.193 5.316 2.409 0 3.789-1.487 4.366-2.343l-1.781-1.21c-.603.882-1.405 1.462-2.585 1.462-1.179 0-2.007-.53-2.534-1.612l7.025-2.948-.25-.604zM44.658 14.89v2.242h5.32c-.151 1.26-.578 2.191-1.205 2.82-.778.782-1.982 1.638-4.115 1.638-3.286 0-5.845-2.67-5.845-5.995S41.372 9.6 44.658 9.6c1.782 0 3.061.706 4.015 1.613l1.58-1.587c-1.33-1.285-3.11-2.268-5.595-2.268-4.49 0-8.279 3.704-8.279 8.238 0 4.534 3.763 8.237 8.28 8.237 2.433 0 4.24-.806 5.695-2.317 1.48-1.487 1.931-3.577 1.931-5.265 0-.53-.05-1.008-.125-1.41l-7.502.05zm13.649 6.902c-1.58 0-2.96-1.335-2.96-3.225 0-1.914 1.38-3.224 2.96-3.224s2.96 1.31 2.96 3.224c0 1.89-1.355 3.225-2.96 3.225zm0-8.54c-2.91 0-5.269 2.242-5.269 5.315 0 3.049 2.358 5.316 5.269 5.316 2.91 0 5.268-2.242 5.268-5.316 0-3.073-2.358-5.315-5.268-5.315zm11.49 8.54c-1.58 0-2.96-1.335-2.96-3.225 0-1.914 1.38-3.224 2.96-3.224 1.581 0 2.961 1.31 2.961 3.224 0 1.89-1.38 3.225-2.96 3.225zm0-8.54c-2.885 0-5.268 2.242-5.268 5.315 0 3.049 2.358 5.316 5.269 5.316 2.91 0 5.268-2.242 5.268-5.316 0-3.073-2.358-5.315-5.268-5.315z" fill="#FFF"/></g></svg>