<svg width="71" height="41" viewBox="0 0 71 41" xmlns="http://www.w3.org/2000/svg"><defs><linearGradient x1="0%" y1="50%" x2="100%" y2="50%" id="a"><stop stop-color="#0B6BB3" offset="0%"/><stop stop-color="#4BC1F0" offset="100%"/></linearGradient><linearGradient x1="0%" y1="49.999%" x2="100%" y2="49.999%" id="b"><stop stop-color="#0B6BB3" offset="0%"/><stop stop-color="#4BC1F0" offset="100%"/></linearGradient></defs><g fill="none" fill-rule="evenodd"><path d="M52.786.021c-.544 0-.932.156-1.242.466-.311.31-.466.698-.466 1.162 0 .466.155.931.466 1.164.31.31.698.465 1.242.465s.932-.155 1.242-.465c.311-.31.466-.698.466-1.164 0-.464-.077-.93-.388-1.162-.31-.31-.776-.466-1.32-.466zm-12.19 6.435c-.933.698-1.398 1.706-1.398 2.87 0 1.782 1.009 3.1 3.028 3.876l2.33.853c.776.31 1.242.542 1.552.852.31.31.388.62.388 1.086 0 .62-.232 1.163-.698 1.473-.466.31-1.165.543-2.02.543-1.32 0-2.562-.155-3.804-.543-.31-.078-.543-.155-.7-.155-.232 0-.31.155-.31.465v.776c0 .232.078.387.156.542.078.078.233.233.466.31 1.242.543 2.64.776 4.193.776 1.63 0 2.873-.388 3.882-1.163 1.01-.776 1.476-1.784 1.476-3.102 0-.93-.234-1.628-.7-2.248-.465-.543-1.242-1.085-2.329-1.473l-2.174-.853c-.855-.31-1.476-.62-1.708-.93-.31-.31-.466-.62-.466-1.163 0-1.163.854-1.784 2.64-1.784 1.01 0 2.019.156 2.95.466.311.077.544.155.622.155.233 0 .388-.155.388-.465v-.776c0-.232-.077-.388-.155-.543-.078-.154-.233-.232-.467-.31-1.164-.387-2.328-.62-3.494-.62-1.475 0-2.717.388-3.649 1.085zm-28.964.853c-.621-1.317-1.786-1.938-3.494-1.938-1.708 0-3.417.62-5.125 1.783l-.156-.853c0-.232-.077-.31-.232-.387-.078-.078-.233-.078-.389-.078H.994c-.388 0-.544.156-.544.543v12.87c0 .388.156.543.544.543h1.631c.388 0 .543-.155.543-.543V8.782c1.32-.775 2.64-1.24 4.038-1.24.777 0 1.32.233 1.63.698.312.465.544 1.085.544 2.016v8.916c0 .387.155.542.544.542h1.63c.389 0 .544-.155.544-.542V8.782c1.397-.852 2.717-1.24 4.038-1.24.776 0 1.32.233 1.63.698.311.465.544 1.085.544 2.016v8.916c0 .387.155.542.543.542h1.63c.39 0 .544-.155.544-.542V9.48c0-1.318-.31-2.326-1.01-3.024-.698-.697-1.63-1.085-2.95-1.085-1.785 0-3.649.62-5.435 1.938zm47.21.078c-1.164 1.24-1.785 3.101-1.785 5.427 0 2.326.543 4.11 1.708 5.35 1.165 1.24 2.796 1.86 4.97 1.86 1.164 0 2.252-.154 3.106-.542.233-.078.388-.155.465-.31.078-.078.078-.31.078-.543v-.775c0-.388-.155-.543-.388-.543-.078 0-.233 0-.389.077-.854.233-1.708.388-2.484.388-1.476 0-2.562-.388-3.261-1.163-.7-.775-1.01-2.016-1.01-3.644v-.387c.078-1.706.388-2.946 1.087-3.722.699-.775 1.786-1.163 3.339-1.163.777 0 1.553.078 2.252.31.233.078.31.078.466.078.233 0 .388-.155.388-.543v-.775c0-.233-.078-.466-.155-.543-.078-.077-.233-.232-.388-.31-1.01-.233-2.02-.465-2.951-.465-2.174 0-3.805.62-5.047 1.938zM52.01 5.76c-.387 0-.543.155-.543.542v12.87c0 .388.156.543.543.543h1.63c.389 0 .545-.155.545-.542V6.302c0-.31-.156-.543-.544-.543h-1.63zm-17.781 0c-.466 0-.621.233-.621.542v10.312c-1.32.853-2.64 1.318-3.96 1.318-.855 0-1.476-.232-1.864-.698-.388-.465-.544-1.163-.544-2.17V6.3c0-.387-.155-.542-.543-.542h-1.63c-.389 0-.544.155-.544.542v9.614c0 1.318.31 2.404 1.009 3.102.7.697 1.708 1.085 3.029 1.085 1.786 0 3.572-.62 5.28-1.86l.155.93c0 .232.078.31.233.387.077.078.233.078.466.078h1.165c.388 0 .543-.155.543-.543V6.301c0-.387-.155-.542-.543-.542h-1.631z" fill="url(#a)" transform="translate(.96 .48)"/><path d="M56.58 26.8c-.7.467-.544 1.09.155 1.013 2.407-.312 7.842-.936 8.851.312.933 1.247-1.086 6.392-2.018 8.652-.233.702.31.935 1.009.468 4.038-3.43 5.125-10.523 4.271-11.615-.388-.467-2.252-.935-4.581-.935-2.485 0-5.436.546-7.687 2.105M0 26.584v.015c.002.185.087.392.284.59 9.008 8.185 20.965 13.096 34.165 13.096 9.474 0 20.422-2.962 27.954-8.575 1.32-.935.233-2.338-1.087-1.792-8.463 3.586-17.704 5.378-26.09 5.378-12.424 0-24.46-3.43-34.165-9.12-.156-.078-.311-.156-.467-.156-.34 0-.59.246-.594.564" fill="url(#b)" transform="translate(.96 .48)"/></g></svg>