<svg xmlns="http://www.w3.org/2000/svg" width="209.51" height="170.62" viewBox="0 0 209.51 170.62"><defs><style>.a{fill:#132f56;}</style></defs><title>quotes</title><path class="a" d="M338.68,108.17q5.13-2.06,8.9,4.79,3.42,6.51-.34,9.93-24,17.46-33.21,30.46a46.68,46.68,0,0,0-8.22,26.36q0,8.22,3.25,12.67a27.39,27.39,0,0,0,8.05,7.36,69,69,0,0,0,10.44,5.14A38.76,38.76,0,0,1,338,211,31.55,31.55,0,0,1,346,221.48q3.24,6.51,3.25,17.8,0,16.44-11,27.73t-31.83,11.3q-22.61,0-36.29-16.43-14-16.77-14-42.45,0-22.94,7.71-40.91a118.36,118.36,0,0,1,19.68-31.67,126.7,126.7,0,0,1,26.53-23.11A202.8,202.8,0,0,1,338.68,108.17Zm116.39,0q5.15-2.06,8.9,4.79,3.42,6.51-.34,9.93-24,17.46-33.21,30.46a46.74,46.74,0,0,0-8.21,26.36q0,8.22,3.25,12.67a27.39,27.39,0,0,0,8.05,7.36A68.49,68.49,0,0,0,444,204.88,38.91,38.91,0,0,1,454.39,211a31.66,31.66,0,0,1,8,10.44q3.26,6.51,3.26,17.8,0,16.44-11,27.73t-31.84,11.3q-22.59,0-36.29-16.43-14-16.77-14-42.45,0-22.94,7.7-40.91A118.64,118.64,0,0,1,400,146.85a126.2,126.2,0,0,1,26.53-23.11A202.72,202.72,0,0,1,455.07,108.17Z" transform="translate(-256.17 -107.69)"/></svg>